<svg width="600" height="300" viewBox="0 0 600 300" fill="none" xmlns="http://www.w3.org/2000/svg">
<rect width="600" height="300" fill="white"/>
<path d="M68 222C67.4477 222 67 222.448 67 223C67 223.552 67.4477 224 68 224V222ZM241.707 124.293C241.317 123.902 240.683 123.902 240.293 124.293L233.929 130.657C233.538 131.047 233.538 131.681 233.929 132.071C234.319 132.462 234.953 132.462 235.343 132.071L241 126.414L246.657 132.071C247.047 132.462 247.681 132.462 248.071 132.071C248.462 131.681 248.462 131.047 248.071 130.657L241.707 124.293ZM68 224H235V222H68V224ZM242 217V125H240V217H242ZM235 224C238.866 224 242 220.866 242 217H240C240 219.761 237.761 222 235 222V224Z" fill="#8596AD"/>
<path d="M178.707 124.293C178.317 123.902 177.683 123.902 177.293 124.293L170.929 130.657C170.538 131.047 170.538 131.681 170.929 132.071C171.319 132.462 171.953 132.462 172.343 132.071L178 126.414L183.657 132.071C184.047 132.462 184.681 132.462 185.071 132.071C185.462 131.681 185.462 131.047 185.071 130.657L178.707 124.293ZM67 240.5C67 241.052 67.4477 241.5 68 241.5C68.5523 241.5 69 241.052 69 240.5H67ZM172 205.317V204.317V205.317ZM177 125V199.317H179V125H177ZM172 204.317L74 204.317V206.317L172 206.317V204.317ZM67 211.317V240.5H69V211.317H67ZM74 204.317C70.134 204.317 67 207.451 67 211.317H69C69 208.556 71.2386 206.317 74 206.317V204.317ZM177 199.317C177 202.079 174.761 204.317 172 204.317V206.317C175.866 206.317 179 203.183 179 199.317H177Z" fill="#8596AD"/>
<path d="M108.139 153.507C107.749 153.117 107.749 152.483 108.139 152.093L114.503 145.729C114.894 145.338 115.527 145.338 115.917 145.729C116.308 146.119 116.308 146.753 115.917 147.143L110.26 152.8L115.917 158.457C116.308 158.847 116.308 159.481 115.917 159.871C115.527 160.262 114.894 160.262 114.503 159.871L108.139 153.507ZM67 112C67 111.448 67.4477 111 68 111C68.5523 111 69 111.448 69 112H67ZM126 199V158.8H128V199H126ZM121 153.8H108.846V151.8H121V153.8ZM121 206H74V204H121V206ZM67 199V112H69V199H67ZM74 206C70.134 206 67 202.866 67 199H69C69 201.761 71.2386 204 74 204V206ZM126 158.8C126 156.039 123.761 153.8 121 153.8V151.8C124.866 151.8 128 154.934 128 158.8H126ZM128 199C128 202.866 124.866 206 121 206V204C123.761 204 126 201.761 126 199H128Z" fill="#8596AD"/>
<path d="M34 111C33.4477 111 33 111.448 33 112C33 112.552 33.4477 113 34 113L34 111ZM312.707 112.707C313.098 112.316 313.098 111.683 312.707 111.293L306.343 104.929C305.953 104.538 305.319 104.538 304.929 104.929C304.538 105.319 304.538 105.952 304.929 106.343L310.586 112L304.929 117.657C304.538 118.047 304.538 118.68 304.929 119.071C305.319 119.461 305.953 119.461 306.343 119.071L312.707 112.707ZM34 113L312 113L312 111L34 111L34 113Z" fill="#8596AD"/>
<path d="M94 113V198" stroke="#8596AD" stroke-width="2" stroke-linecap="round"/>
<path d="M178 158C177.448 158 177 158.448 177 159C177 159.552 177.448 160 178 160V158ZM226.707 159.707C227.098 159.317 227.098 158.683 226.707 158.293L220.343 151.929C219.953 151.538 219.319 151.538 218.929 151.929C218.538 152.319 218.538 152.953 218.929 153.343L224.586 159L218.929 164.657C218.538 165.047 218.538 165.681 218.929 166.071C219.319 166.462 219.953 166.462 220.343 166.071L226.707 159.707ZM178 160H226V158H178V160Z" fill="#8596AD"/>
<path d="M94 207V217C94 220.314 96.6863 223 100 223H116" stroke="#8596AD" stroke-width="2" stroke-linecap="round"/>
<rect x="231" y="149" width="20" height="20" rx="4" fill="#232A3D"/>
<path d="M237.463 162.463L244.39 155.537" stroke="white" stroke-width="2" stroke-linecap="round"/>
<path d="M244.39 162.463L237.463 155.537" stroke="white" stroke-width="2" stroke-linecap="round"/>
<rect x="168" y="102" width="20" height="20" rx="4" fill="#232A3D"/>
<path d="M174.463 115.463L181.39 108.537" stroke="white" stroke-width="2" stroke-linecap="round"/>
<path d="M181.39 115.463L174.463 108.537" stroke="white" stroke-width="2" stroke-linecap="round"/>
<rect x="168" y="135" width="20" height="20" rx="4" fill="#232A3D"/>
<path d="M173.036 150V148.684H175.024V142.832H173.386V141.824C173.825 141.74 174.207 141.642 174.534 141.53C174.861 141.409 175.164 141.264 175.444 141.096H176.648V148.684H178.398V150H173.036ZM179.766 147.06V145.884H183.098V147.06H179.766Z" fill="white"/>
<rect x="84" y="143" width="20" height="20" rx="4" fill="#232A3D"/>
<path d="M90.4634 156.463L97.3901 149.537" stroke="white" stroke-width="2" stroke-linecap="round"/>
<path d="M97.3901 156.463L90.4634 149.537" stroke="white" stroke-width="2" stroke-linecap="round"/>
<rect x="231" y="102" width="20" height="20" rx="4" fill="#232A3D"/>
<path d="M236 111.706H245.412" stroke="white" stroke-width="2" stroke-linecap="round"/>
<path d="M240.706 116.412V107" stroke="white" stroke-width="2" stroke-linecap="round"/>
<circle cx="127" cy="188" r="12" fill="url(#paint0_linear_92_81)"/>
<path d="M132.829 182.171C121.171 182.171 131.457 193.486 121.171 193.486" stroke="white" stroke-width="2" stroke-linecap="round"/>
<circle cx="178" cy="188" r="12" fill="url(#paint1_linear_92_81)"/>
<path d="M183.829 182.171C172.171 182.171 182.457 193.486 172.171 193.486" stroke="white" stroke-width="2" stroke-linecap="round"/>
<circle cx="241" cy="188" r="12" fill="url(#paint2_linear_92_81)"/>
<path d="M246.829 182.171C235.171 182.171 245.457 193.486 235.171 193.486" stroke="white" stroke-width="2" stroke-linecap="round"/>
<rect x="78" y="97" width="66" height="121" rx="9" stroke="#C74E4E" stroke-width="2" stroke-linejoin="round" stroke-dasharray="4 4"/>
<rect x="152" y="97" width="55" height="121" rx="9" stroke="#209766" stroke-width="2" stroke-linejoin="round" stroke-dasharray="4 4"/>
<path d="M78.168 88V80.144H79.688L79.816 81.536H79.88C80.1573 81.024 80.4933 80.6347 80.888 80.368C81.2827 80.0907 81.688 79.952 82.104 79.952C82.4773 79.952 82.776 80.0053 83 80.112L82.68 81.712C82.5413 81.6693 82.4133 81.6373 82.296 81.616C82.1787 81.5947 82.0347 81.584 81.864 81.584C81.5547 81.584 81.2293 81.7067 80.888 81.952C80.5467 82.1867 80.2533 82.6027 80.008 83.2V88H78.168ZM87.3405 88.192C86.6152 88.192 85.9592 88.032 85.3725 87.712C84.7858 87.3813 84.3218 86.912 83.9805 86.304C83.6392 85.6853 83.4685 84.944 83.4685 84.08C83.4685 83.2267 83.6392 82.4907 83.9805 81.872C84.3325 81.2533 84.7858 80.7787 85.3405 80.448C85.8952 80.1173 86.4765 79.952 87.0845 79.952C87.7992 79.952 88.3965 80.112 88.8765 80.432C89.3565 80.7413 89.7192 81.1787 89.9645 81.744C90.2098 82.2987 90.3325 82.944 90.3325 83.68C90.3325 84.064 90.3058 84.3627 90.2525 84.576H85.2605C85.3458 85.2693 85.5965 85.808 86.0125 86.192C86.4285 86.576 86.9512 86.768 87.5805 86.768C87.9218 86.768 88.2365 86.72 88.5245 86.624C88.8232 86.5173 89.1165 86.3733 89.4045 86.192L90.0285 87.344C89.6552 87.5893 89.2392 87.792 88.7805 87.952C88.3218 88.112 87.8418 88.192 87.3405 88.192ZM85.2445 83.328H88.7325C88.7325 82.72 88.5992 82.2453 88.3325 81.904C88.0658 81.552 87.6658 81.376 87.1325 81.376C86.6738 81.376 86.2632 81.5467 85.9005 81.888C85.5485 82.2187 85.3298 82.6987 85.2445 83.328ZM94.2819 88.192C93.7485 88.192 93.2152 88.0907 92.6819 87.888C92.1485 87.6747 91.6899 87.4133 91.3059 87.104L92.1699 85.92C92.5219 86.1867 92.8739 86.4 93.2259 86.56C93.5779 86.72 93.9512 86.8 94.3459 86.8C94.7725 86.8 95.0872 86.7093 95.2899 86.528C95.4925 86.3467 95.5939 86.1227 95.5939 85.856C95.5939 85.632 95.5085 85.4507 95.3379 85.312C95.1779 85.1627 94.9699 85.0347 94.7139 84.928C94.4579 84.8107 94.1912 84.6987 93.9139 84.592C93.5725 84.464 93.2312 84.3093 92.8899 84.128C92.5592 83.936 92.2872 83.696 92.0739 83.408C91.8605 83.1093 91.7539 82.7413 91.7539 82.304C91.7539 81.6107 92.0099 81.0453 92.5219 80.608C93.0339 80.1707 93.7272 79.952 94.6019 79.952C95.1565 79.952 95.6525 80.048 96.0899 80.24C96.5272 80.432 96.9059 80.6507 97.2259 80.896L96.3779 82.016C96.1005 81.8133 95.8179 81.6533 95.5299 81.536C95.2525 81.408 94.9592 81.344 94.6499 81.344C94.2552 81.344 93.9619 81.4293 93.7699 81.6C93.5779 81.76 93.4819 81.9627 93.4819 82.208C93.4819 82.5173 93.6419 82.752 93.9619 82.912C94.2819 83.072 94.6552 83.2267 95.0819 83.376C95.4445 83.504 95.7965 83.664 96.1379 83.856C96.4792 84.0373 96.7619 84.2773 96.9859 84.576C97.2205 84.8747 97.3379 85.2693 97.3379 85.76C97.3379 86.432 97.0765 87.008 96.5539 87.488C96.0312 87.9573 95.2739 88.192 94.2819 88.192ZM102.341 88.192C101.615 88.192 100.959 88.032 100.373 87.712C99.7858 87.3813 99.3218 86.912 98.9805 86.304C98.6392 85.6853 98.4685 84.944 98.4685 84.08C98.4685 83.2267 98.6392 82.4907 98.9805 81.872C99.3325 81.2533 99.7858 80.7787 100.341 80.448C100.895 80.1173 101.477 79.952 102.085 79.952C102.799 79.952 103.397 80.112 103.877 80.432C104.357 80.7413 104.719 81.1787 104.965 81.744C105.21 82.2987 105.333 82.944 105.333 83.68C105.333 84.064 105.306 84.3627 105.253 84.576H100.261C100.346 85.2693 100.597 85.808 101.013 86.192C101.429 86.576 101.951 86.768 102.581 86.768C102.922 86.768 103.237 86.72 103.525 86.624C103.823 86.5173 104.117 86.3733 104.405 86.192L105.029 87.344C104.655 87.5893 104.239 87.792 103.781 87.952C103.322 88.112 102.842 88.192 102.341 88.192ZM100.245 83.328H103.733C103.733 82.72 103.599 82.2453 103.333 81.904C103.066 81.552 102.666 81.376 102.133 81.376C101.674 81.376 101.263 81.5467 100.901 81.888C100.549 82.2187 100.33 82.6987 100.245 83.328ZM109.702 88.192C108.795 88.192 108.15 87.9307 107.766 87.408C107.392 86.8747 107.206 86.1867 107.206 85.344V81.6H106.086V80.224L107.302 80.144L107.526 78H109.062V80.144H111.062V81.6H109.062V85.344C109.062 86.2613 109.43 86.72 110.166 86.72C110.304 86.72 110.448 86.704 110.598 86.672C110.747 86.6293 110.875 86.5867 110.982 86.544L111.302 87.904C111.088 87.9787 110.843 88.0427 110.566 88.096C110.299 88.16 110.011 88.192 109.702 88.192ZM118.654 91.472C118.035 91.472 117.475 91.3973 116.974 91.248C116.483 91.0987 116.094 90.8693 115.806 90.56C115.529 90.2613 115.39 89.8827 115.39 89.424C115.39 88.7733 115.763 88.2133 116.51 87.744V87.68C116.307 87.552 116.137 87.3813 115.998 87.168C115.87 86.9547 115.806 86.688 115.806 86.368C115.806 86.0587 115.891 85.7813 116.062 85.536C116.243 85.28 116.446 85.072 116.67 84.912V84.848C116.403 84.6453 116.163 84.3627 115.95 84C115.747 83.6373 115.646 83.2267 115.646 82.768C115.646 82.16 115.79 81.648 116.078 81.232C116.366 80.816 116.745 80.5013 117.214 80.288C117.694 80.064 118.206 79.952 118.75 79.952C118.963 79.952 119.166 79.9733 119.358 80.016C119.561 80.048 119.742 80.0907 119.902 80.144H122.718V81.504H121.278C121.406 81.6533 121.513 81.8453 121.598 82.08C121.683 82.304 121.726 82.5547 121.726 82.832C121.726 83.408 121.593 83.8987 121.326 84.304C121.059 84.6987 120.702 84.9973 120.254 85.2C119.806 85.4027 119.305 85.504 118.75 85.504C118.579 85.504 118.403 85.488 118.222 85.456C118.041 85.424 117.859 85.3707 117.678 85.296C117.561 85.4027 117.465 85.5093 117.39 85.616C117.326 85.7227 117.294 85.8667 117.294 86.048C117.294 86.272 117.385 86.448 117.566 86.576C117.758 86.704 118.094 86.768 118.574 86.768H119.966C120.915 86.768 121.63 86.9227 122.11 87.232C122.601 87.5307 122.846 88.0213 122.846 88.704C122.846 89.216 122.675 89.68 122.334 90.096C121.993 90.5227 121.507 90.8587 120.878 91.104C120.249 91.3493 119.507 91.472 118.654 91.472ZM118.75 84.352C119.123 84.352 119.443 84.2133 119.71 83.936C119.977 83.6587 120.11 83.2693 120.11 82.768C120.11 82.2773 119.977 81.8987 119.71 81.632C119.454 81.3547 119.134 81.216 118.75 81.216C118.366 81.216 118.041 81.3493 117.774 81.616C117.507 81.8827 117.374 82.2667 117.374 82.768C117.374 83.2693 117.507 83.6587 117.774 83.936C118.041 84.2133 118.366 84.352 118.75 84.352ZM118.942 90.272C119.571 90.272 120.083 90.144 120.478 89.888C120.873 89.632 121.07 89.3387 121.07 89.008C121.07 88.6987 120.947 88.4907 120.702 88.384C120.467 88.2773 120.126 88.224 119.678 88.224H118.606C118.179 88.224 117.822 88.1867 117.534 88.112C117.129 88.4213 116.926 88.768 116.926 89.152C116.926 89.504 117.107 89.776 117.47 89.968C117.833 90.1707 118.323 90.272 118.942 90.272ZM125.853 88.192C125.171 88.192 124.611 87.9787 124.173 87.552C123.747 87.1253 123.533 86.5707 123.533 85.888C123.533 85.0453 123.901 84.3947 124.637 83.936C125.373 83.4667 126.547 83.1467 128.157 82.976C128.147 82.56 128.035 82.2027 127.821 81.904C127.619 81.5947 127.251 81.44 126.717 81.44C126.333 81.44 125.955 81.5147 125.581 81.664C125.219 81.8133 124.861 81.9947 124.509 82.208L123.837 80.976C124.275 80.6987 124.765 80.4587 125.309 80.256C125.864 80.0533 126.451 79.952 127.069 79.952C128.051 79.952 128.781 80.2453 129.261 80.832C129.752 81.408 129.997 82.2453 129.997 83.344V88H128.477L128.349 87.136H128.285C127.933 87.4347 127.555 87.6853 127.149 87.888C126.755 88.0907 126.323 88.192 125.853 88.192ZM126.445 86.752C126.765 86.752 127.053 86.6773 127.309 86.528C127.576 86.368 127.859 86.1547 128.157 85.888V84.128C127.091 84.2667 126.349 84.4747 125.933 84.752C125.517 85.0187 125.309 85.3493 125.309 85.744C125.309 86.096 125.416 86.352 125.629 86.512C125.843 86.672 126.115 86.752 126.445 86.752ZM134.717 88.192C133.811 88.192 133.165 87.9307 132.781 87.408C132.408 86.8747 132.221 86.1867 132.221 85.344V81.6H131.101V80.224L132.317 80.144L132.541 78H134.077V80.144H136.077V81.6H134.077V85.344C134.077 86.2613 134.445 86.72 135.181 86.72C135.32 86.72 135.464 86.704 135.613 86.672C135.763 86.6293 135.891 86.5867 135.997 86.544L136.317 87.904C136.104 87.9787 135.859 88.0427 135.581 88.096C135.315 88.16 135.027 88.192 134.717 88.192ZM140.841 88.192C140.115 88.192 139.459 88.032 138.873 87.712C138.286 87.3813 137.822 86.912 137.481 86.304C137.139 85.6853 136.969 84.944 136.969 84.08C136.969 83.2267 137.139 82.4907 137.481 81.872C137.833 81.2533 138.286 80.7787 138.841 80.448C139.395 80.1173 139.977 79.952 140.585 79.952C141.299 79.952 141.897 80.112 142.377 80.432C142.857 80.7413 143.219 81.1787 143.465 81.744C143.71 82.2987 143.833 82.944 143.833 83.68C143.833 84.064 143.806 84.3627 143.753 84.576H138.761C138.846 85.2693 139.097 85.808 139.513 86.192C139.929 86.576 140.451 86.768 141.081 86.768C141.422 86.768 141.737 86.72 142.025 86.624C142.323 86.5173 142.617 86.3733 142.905 86.192L143.529 87.344C143.155 87.5893 142.739 87.792 142.281 87.952C141.822 88.112 141.342 88.192 140.841 88.192ZM138.745 83.328H142.233C142.233 82.72 142.099 82.2453 141.833 81.904C141.566 81.552 141.166 81.376 140.633 81.376C140.174 81.376 139.763 81.5467 139.401 81.888C139.049 82.2187 138.83 82.6987 138.745 83.328Z" fill="#C74E4E"/>
<path d="M143.504 237.192C142.661 237.192 142.048 236.92 141.664 236.376C141.28 235.832 141.088 235.064 141.088 234.072V229.144H142.928V233.832C142.928 234.483 143.024 234.941 143.216 235.208C143.408 235.475 143.717 235.608 144.144 235.608C144.485 235.608 144.784 235.523 145.04 235.352C145.307 235.181 145.589 234.904 145.888 234.52V229.144H147.728V237H146.224L146.08 235.848H146.032C145.691 236.253 145.317 236.579 144.912 236.824C144.507 237.069 144.037 237.192 143.504 237.192ZM150.059 240.104V229.144H151.579L151.707 229.976H151.771C152.101 229.699 152.469 229.459 152.875 229.256C153.291 229.053 153.712 228.952 154.139 228.952C155.12 228.952 155.877 229.315 156.411 230.04C156.955 230.765 157.227 231.736 157.227 232.952C157.227 233.848 157.067 234.616 156.747 235.256C156.427 235.885 156.011 236.365 155.499 236.696C154.997 237.027 154.453 237.192 153.867 237.192C153.525 237.192 153.184 237.117 152.843 236.968C152.501 236.808 152.171 236.595 151.851 236.328L151.899 237.64V240.104H150.059ZM153.483 235.672C154.005 235.672 154.443 235.443 154.795 234.984C155.147 234.525 155.323 233.853 155.323 232.968C155.323 232.179 155.189 231.565 154.923 231.128C154.656 230.691 154.224 230.472 153.627 230.472C153.072 230.472 152.496 230.765 151.899 231.352V235.016C152.187 235.251 152.464 235.421 152.731 235.528C152.997 235.624 153.248 235.672 153.483 235.672ZM161.842 237.192C160.861 237.192 160.077 236.829 159.49 236.104C158.903 235.379 158.61 234.371 158.61 233.08C158.61 232.227 158.765 231.491 159.074 230.872C159.394 230.253 159.81 229.779 160.322 229.448C160.834 229.117 161.373 228.952 161.938 228.952C162.386 228.952 162.765 229.032 163.074 229.192C163.394 229.341 163.703 229.549 164.002 229.816L163.938 228.552V225.704H165.778V237H164.258L164.13 236.152H164.066C163.778 236.44 163.442 236.685 163.058 236.888C162.674 237.091 162.269 237.192 161.842 237.192ZM162.29 235.672C162.877 235.672 163.426 235.379 163.938 234.792V231.128C163.671 230.883 163.405 230.712 163.138 230.616C162.871 230.52 162.605 230.472 162.338 230.472C161.837 230.472 161.405 230.701 161.042 231.16C160.69 231.608 160.514 232.243 160.514 233.064C160.514 233.907 160.669 234.552 160.978 235C161.287 235.448 161.725 235.672 162.29 235.672ZM170.025 237.192C169.342 237.192 168.782 236.979 168.345 236.552C167.918 236.125 167.705 235.571 167.705 234.888C167.705 234.045 168.073 233.395 168.809 232.936C169.545 232.467 170.718 232.147 172.329 231.976C172.318 231.56 172.206 231.203 171.993 230.904C171.79 230.595 171.422 230.44 170.889 230.44C170.505 230.44 170.126 230.515 169.753 230.664C169.39 230.813 169.033 230.995 168.681 231.208L168.009 229.976C168.446 229.699 168.937 229.459 169.481 229.256C170.036 229.053 170.622 228.952 171.241 228.952C172.222 228.952 172.953 229.245 173.433 229.832C173.924 230.408 174.169 231.245 174.169 232.344V237H172.649L172.521 236.136H172.457C172.105 236.435 171.726 236.685 171.321 236.888C170.926 237.091 170.494 237.192 170.025 237.192ZM170.617 235.752C170.937 235.752 171.225 235.677 171.481 235.528C171.748 235.368 172.03 235.155 172.329 234.888V233.128C171.262 233.267 170.521 233.475 170.105 233.752C169.689 234.019 169.481 234.349 169.481 234.744C169.481 235.096 169.588 235.352 169.801 235.512C170.014 235.672 170.286 235.752 170.617 235.752ZM178.889 237.192C177.982 237.192 177.337 236.931 176.953 236.408C176.58 235.875 176.393 235.187 176.393 234.344V230.6H175.273V229.224L176.489 229.144L176.713 227H178.249V229.144H180.249V230.6H178.249V234.344C178.249 235.261 178.617 235.72 179.353 235.72C179.492 235.72 179.636 235.704 179.785 235.672C179.934 235.629 180.062 235.587 180.169 235.544L180.489 236.904C180.276 236.979 180.03 237.043 179.753 237.096C179.486 237.16 179.198 237.192 178.889 237.192ZM185.012 237.192C184.287 237.192 183.631 237.032 183.044 236.712C182.458 236.381 181.994 235.912 181.652 235.304C181.311 234.685 181.14 233.944 181.14 233.08C181.14 232.227 181.311 231.491 181.652 230.872C182.004 230.253 182.458 229.779 183.012 229.448C183.567 229.117 184.148 228.952 184.756 228.952C185.471 228.952 186.068 229.112 186.548 229.432C187.028 229.741 187.391 230.179 187.636 230.744C187.882 231.299 188.004 231.944 188.004 232.68C188.004 233.064 187.978 233.363 187.924 233.576H182.932C183.018 234.269 183.268 234.808 183.684 235.192C184.1 235.576 184.623 235.768 185.252 235.768C185.594 235.768 185.908 235.72 186.196 235.624C186.495 235.517 186.788 235.373 187.076 235.192L187.7 236.344C187.327 236.589 186.911 236.792 186.452 236.952C185.994 237.112 185.514 237.192 185.012 237.192ZM182.916 232.328H186.404C186.404 231.72 186.271 231.245 186.004 230.904C185.738 230.552 185.338 230.376 184.804 230.376C184.346 230.376 183.935 230.547 183.572 230.888C183.22 231.219 183.002 231.699 182.916 232.328ZM195.701 240.472C195.082 240.472 194.522 240.397 194.021 240.248C193.53 240.099 193.141 239.869 192.853 239.56C192.576 239.261 192.437 238.883 192.437 238.424C192.437 237.773 192.81 237.213 193.557 236.744V236.68C193.354 236.552 193.184 236.381 193.045 236.168C192.917 235.955 192.853 235.688 192.853 235.368C192.853 235.059 192.938 234.781 193.109 234.536C193.29 234.28 193.493 234.072 193.717 233.912V233.848C193.45 233.645 193.21 233.363 192.997 233C192.794 232.637 192.693 232.227 192.693 231.768C192.693 231.16 192.837 230.648 193.125 230.232C193.413 229.816 193.792 229.501 194.261 229.288C194.741 229.064 195.253 228.952 195.797 228.952C196.01 228.952 196.213 228.973 196.405 229.016C196.608 229.048 196.789 229.091 196.949 229.144H199.765V230.504H198.325C198.453 230.653 198.56 230.845 198.645 231.08C198.73 231.304 198.773 231.555 198.773 231.832C198.773 232.408 198.64 232.899 198.373 233.304C198.106 233.699 197.749 233.997 197.301 234.2C196.853 234.403 196.352 234.504 195.797 234.504C195.626 234.504 195.45 234.488 195.269 234.456C195.088 234.424 194.906 234.371 194.725 234.296C194.608 234.403 194.512 234.509 194.437 234.616C194.373 234.723 194.341 234.867 194.341 235.048C194.341 235.272 194.432 235.448 194.613 235.576C194.805 235.704 195.141 235.768 195.621 235.768H197.013C197.962 235.768 198.677 235.923 199.157 236.232C199.648 236.531 199.893 237.021 199.893 237.704C199.893 238.216 199.722 238.68 199.381 239.096C199.04 239.523 198.554 239.859 197.925 240.104C197.296 240.349 196.554 240.472 195.701 240.472ZM195.797 233.352C196.17 233.352 196.49 233.213 196.757 232.936C197.024 232.659 197.157 232.269 197.157 231.768C197.157 231.277 197.024 230.899 196.757 230.632C196.501 230.355 196.181 230.216 195.797 230.216C195.413 230.216 195.088 230.349 194.821 230.616C194.554 230.883 194.421 231.267 194.421 231.768C194.421 232.269 194.554 232.659 194.821 232.936C195.088 233.213 195.413 233.352 195.797 233.352ZM195.989 239.272C196.618 239.272 197.13 239.144 197.525 238.888C197.92 238.632 198.117 238.339 198.117 238.008C198.117 237.699 197.994 237.491 197.749 237.384C197.514 237.277 197.173 237.224 196.725 237.224H195.653C195.226 237.224 194.869 237.187 194.581 237.112C194.176 237.421 193.973 237.768 193.973 238.152C193.973 238.504 194.154 238.776 194.517 238.968C194.88 239.171 195.37 239.272 195.989 239.272ZM202.9 237.192C202.217 237.192 201.657 236.979 201.22 236.552C200.793 236.125 200.58 235.571 200.58 234.888C200.58 234.045 200.948 233.395 201.684 232.936C202.42 232.467 203.593 232.147 205.204 231.976C205.193 231.56 205.081 231.203 204.868 230.904C204.665 230.595 204.297 230.44 203.764 230.44C203.38 230.44 203.001 230.515 202.628 230.664C202.265 230.813 201.908 230.995 201.556 231.208L200.884 229.976C201.321 229.699 201.812 229.459 202.356 229.256C202.911 229.053 203.497 228.952 204.116 228.952C205.097 228.952 205.828 229.245 206.308 229.832C206.799 230.408 207.044 231.245 207.044 232.344V237H205.524L205.396 236.136H205.332C204.98 236.435 204.601 236.685 204.196 236.888C203.801 237.091 203.369 237.192 202.9 237.192ZM203.492 235.752C203.812 235.752 204.1 235.677 204.356 235.528C204.623 235.368 204.905 235.155 205.204 234.888V233.128C204.137 233.267 203.396 233.475 202.98 233.752C202.564 234.019 202.356 234.349 202.356 234.744C202.356 235.096 202.463 235.352 202.676 235.512C202.889 235.672 203.161 235.752 203.492 235.752ZM211.764 237.192C210.857 237.192 210.212 236.931 209.828 236.408C209.455 235.875 209.268 235.187 209.268 234.344V230.6H208.148V229.224L209.364 229.144L209.588 227H211.124V229.144H213.124V230.6H211.124V234.344C211.124 235.261 211.492 235.72 212.228 235.72C212.367 235.72 212.511 235.704 212.66 235.672C212.809 235.629 212.937 235.587 213.044 235.544L213.364 236.904C213.151 236.979 212.905 237.043 212.628 237.096C212.361 237.16 212.073 237.192 211.764 237.192ZM217.887 237.192C217.162 237.192 216.506 237.032 215.919 236.712C215.333 236.381 214.869 235.912 214.527 235.304C214.186 234.685 214.015 233.944 214.015 233.08C214.015 232.227 214.186 231.491 214.527 230.872C214.879 230.253 215.333 229.779 215.887 229.448C216.442 229.117 217.023 228.952 217.631 228.952C218.346 228.952 218.943 229.112 219.423 229.432C219.903 229.741 220.266 230.179 220.511 230.744C220.757 231.299 220.879 231.944 220.879 232.68C220.879 233.064 220.853 233.363 220.799 233.576H215.807C215.893 234.269 216.143 234.808 216.559 235.192C216.975 235.576 217.498 235.768 218.127 235.768C218.469 235.768 218.783 235.72 219.071 235.624C219.37 235.517 219.663 235.373 219.951 235.192L220.575 236.344C220.202 236.589 219.786 236.792 219.327 236.952C218.869 237.112 218.389 237.192 217.887 237.192ZM215.791 232.328H219.279C219.279 231.72 219.146 231.245 218.879 230.904C218.613 230.552 218.213 230.376 217.679 230.376C217.221 230.376 216.81 230.547 216.447 230.888C216.095 231.219 215.877 231.699 215.791 232.328Z" fill="#209766"/>
<path d="M161.14 53.24C159.967 53.24 158.913 52.98 157.98 52.46C157.047 51.94 156.313 51.18 155.78 50.18C155.247 49.1667 154.98 47.94 154.98 46.5C154.98 45.0733 155.253 43.8533 155.8 42.84C156.347 41.8133 157.087 41.0333 158.02 40.5C158.953 39.9533 160 39.68 161.16 39.68C162.093 39.68 162.88 39.8533 163.52 40.2C164.173 40.5333 164.707 40.9133 165.12 41.34L163.88 42.84C163.547 42.52 163.173 42.2533 162.76 42.04C162.36 41.8133 161.853 41.7 161.24 41.7C160.08 41.7 159.14 42.1267 158.42 42.98C157.713 43.82 157.36 44.9733 157.36 46.44C157.36 47.9333 157.7 49.1067 158.38 49.96C159.06 50.8 160.053 51.22 161.36 51.22C161.733 51.22 162.087 51.1733 162.42 51.08C162.753 50.9733 163.027 50.8267 163.24 50.64V47.82H160.76V45.92H165.32V51.68C164.88 52.12 164.293 52.4933 163.56 52.8C162.84 53.0933 162.033 53.24 161.14 53.24ZM168.219 53V39.92H172.639C173.545 39.92 174.359 40.04 175.079 40.28C175.812 40.52 176.385 40.9267 176.799 41.5C177.225 42.06 177.439 42.8267 177.439 43.8C177.439 44.8 177.199 45.6067 176.719 46.22C176.252 46.8333 175.625 47.2733 174.839 47.54L177.959 53H175.359L172.539 47.88H170.539V53H168.219ZM170.539 46.04H172.399C173.292 46.04 173.972 45.8533 174.439 45.48C174.919 45.0933 175.159 44.5333 175.159 43.8C175.159 43.0533 174.919 42.5333 174.439 42.24C173.972 41.9333 173.292 41.78 172.399 41.78H170.539V46.04ZM184.955 53.24C183.955 53.24 183.081 53.04 182.335 52.64C181.588 52.24 181.008 51.6 180.595 50.72C180.195 49.84 179.995 48.6867 179.995 47.26V39.92H182.315V47.44C182.315 48.3867 182.421 49.14 182.635 49.7C182.861 50.2467 183.175 50.64 183.575 50.88C183.975 51.1067 184.435 51.22 184.955 51.22C185.488 51.22 185.955 51.1067 186.355 50.88C186.768 50.64 187.088 50.2467 187.315 49.7C187.555 49.14 187.675 48.3867 187.675 47.44V39.92H189.895V47.26C189.895 48.6867 189.695 49.84 189.295 50.72C188.895 51.6 188.321 52.24 187.575 52.64C186.841 53.04 185.968 53.24 184.955 53.24Z" fill="#232A3D"/>
<rect x="379" y="140" width="28" height="28" rx="4" fill="#232A3D"/>
<path d="M387.849 158.849L397.546 149.151" stroke="white" stroke-width="2" stroke-linecap="round"/>
<path d="M397.546 158.849L387.849 149.151" stroke="white" stroke-width="2" stroke-linecap="round"/>
<rect x="379" y="188" width="28" height="28" rx="4" fill="#232A3D"/>
<path d="M386 201.588H399.176" stroke="white" stroke-width="2" stroke-linecap="round"/>
<path d="M392.588 208.176V195" stroke="white" stroke-width="2" stroke-linecap="round"/>
<circle cx="393" cy="55" r="15" fill="url(#paint3_linear_92_81)"/>
<path d="M400.286 47.7143C385.714 47.7143 398.571 61.8572 385.714 61.8572" stroke="white" stroke-width="2" stroke-linecap="round"/>
<circle cx="393" cy="105" r="15" fill="url(#paint4_linear_92_81)"/>
<path d="M400.286 97.7143C385.714 97.7143 398.571 111.857 385.714 111.857" stroke="white" stroke-width="2" stroke-linecap="round"/>
<path d="M381.733 247C381.181 247 380.733 247.448 380.733 248C380.733 248.552 381.181 249 381.733 249L381.733 247ZM406.707 248.707C407.098 248.317 407.098 247.683 406.707 247.293L400.343 240.929C399.953 240.538 399.319 240.538 398.929 240.929C398.538 241.319 398.538 241.953 398.929 242.343L404.586 248L398.929 253.657C398.538 254.047 398.538 254.681 398.929 255.071C399.319 255.462 399.953 255.462 400.343 255.071L406.707 248.707ZM381.733 249L406 249L406 247L381.733 247L381.733 249Z" fill="#8596AD"/>
<path d="M380 236L381.505 247.352" stroke="#8596AD" stroke-width="2" stroke-linecap="round"/>
<path d="M380 260L381.505 248.648" stroke="#8596AD" stroke-width="2" stroke-linecap="round"/>
<path d="M424.94 60.168C424.473 60.168 424.007 60.0793 423.54 59.902C423.073 59.7153 422.672 59.4867 422.336 59.216L423.092 58.18C423.4 58.4133 423.708 58.6 424.016 58.74C424.324 58.88 424.651 58.95 424.996 58.95C425.369 58.95 425.645 58.8707 425.822 58.712C425.999 58.5533 426.088 58.3573 426.088 58.124C426.088 57.928 426.013 57.7693 425.864 57.648C425.724 57.5173 425.542 57.4053 425.318 57.312C425.094 57.2093 424.861 57.1113 424.618 57.018C424.319 56.906 424.021 56.7707 423.722 56.612C423.433 56.444 423.195 56.234 423.008 55.982C422.821 55.7207 422.728 55.3987 422.728 55.016C422.728 54.4093 422.952 53.9147 423.4 53.532C423.848 53.1493 424.455 52.958 425.22 52.958C425.705 52.958 426.139 53.042 426.522 53.21C426.905 53.378 427.236 53.5693 427.516 53.784L426.774 54.764C426.531 54.5867 426.284 54.4467 426.032 54.344C425.789 54.232 425.533 54.176 425.262 54.176C424.917 54.176 424.66 54.2507 424.492 54.4C424.324 54.54 424.24 54.7173 424.24 54.932C424.24 55.2027 424.38 55.408 424.66 55.548C424.94 55.688 425.267 55.8233 425.64 55.954C425.957 56.066 426.265 56.206 426.564 56.374C426.863 56.5327 427.11 56.7427 427.306 57.004C427.511 57.2653 427.614 57.6107 427.614 58.04C427.614 58.628 427.385 59.132 426.928 59.552C426.471 59.9627 425.808 60.168 424.94 60.168ZM429.051 60V53.126H430.661V60H429.051ZM429.863 51.922C429.574 51.922 429.341 51.838 429.163 51.67C428.986 51.502 428.897 51.278 428.897 50.998C428.897 50.7273 428.986 50.508 429.163 50.34C429.341 50.172 429.574 50.088 429.863 50.088C430.153 50.088 430.386 50.172 430.563 50.34C430.741 50.508 430.829 50.7273 430.829 50.998C430.829 51.278 430.741 51.502 430.563 51.67C430.386 51.838 430.153 51.922 429.863 51.922ZM435.109 63.038C434.568 63.038 434.078 62.9727 433.639 62.842C433.21 62.7113 432.869 62.5107 432.617 62.24C432.375 61.9787 432.253 61.6473 432.253 61.246C432.253 60.6767 432.58 60.1867 433.233 59.776V59.72C433.056 59.608 432.907 59.4587 432.785 59.272C432.673 59.0853 432.617 58.852 432.617 58.572C432.617 58.3013 432.692 58.0587 432.841 57.844C433 57.62 433.177 57.438 433.373 57.298V57.242C433.14 57.0647 432.93 56.8173 432.743 56.5C432.566 56.1827 432.477 55.8233 432.477 55.422C432.477 54.89 432.603 54.442 432.855 54.078C433.107 53.714 433.439 53.4387 433.849 53.252C434.269 53.056 434.717 52.958 435.193 52.958C435.38 52.958 435.557 52.9767 435.725 53.014C435.903 53.042 436.061 53.0793 436.201 53.126H438.665V54.316H437.405C437.517 54.4467 437.611 54.6147 437.685 54.82C437.76 55.016 437.797 55.2353 437.797 55.478C437.797 55.982 437.681 56.4113 437.447 56.766C437.214 57.1113 436.901 57.3727 436.509 57.55C436.117 57.7273 435.679 57.816 435.193 57.816C435.044 57.816 434.89 57.802 434.731 57.774C434.573 57.746 434.414 57.6993 434.255 57.634C434.153 57.7273 434.069 57.8207 434.003 57.914C433.947 58.0073 433.919 58.1333 433.919 58.292C433.919 58.488 433.999 58.642 434.157 58.754C434.325 58.866 434.619 58.922 435.039 58.922H436.257C437.088 58.922 437.713 59.0573 438.133 59.328C438.563 59.5893 438.777 60.0187 438.777 60.616C438.777 61.064 438.628 61.47 438.329 61.834C438.031 62.2073 437.606 62.5013 437.055 62.716C436.505 62.9307 435.856 63.038 435.109 63.038ZM435.193 56.808C435.52 56.808 435.8 56.6867 436.033 56.444C436.267 56.2013 436.383 55.8607 436.383 55.422C436.383 54.9927 436.267 54.6613 436.033 54.428C435.809 54.1853 435.529 54.064 435.193 54.064C434.857 54.064 434.573 54.1807 434.339 54.414C434.106 54.6473 433.989 54.9833 433.989 55.422C433.989 55.8607 434.106 56.2013 434.339 56.444C434.573 56.6867 434.857 56.808 435.193 56.808ZM435.361 61.988C435.912 61.988 436.36 61.876 436.705 61.652C437.051 61.428 437.223 61.1713 437.223 60.882C437.223 60.6113 437.116 60.4293 436.901 60.336C436.696 60.2427 436.397 60.196 436.005 60.196H435.067C434.694 60.196 434.381 60.1633 434.129 60.098C433.775 60.3687 433.597 60.672 433.597 61.008C433.597 61.316 433.756 61.554 434.073 61.722C434.391 61.8993 434.82 61.988 435.361 61.988ZM439.989 60V53.126H441.319L441.431 54.064H441.487C441.776 53.756 442.089 53.4947 442.425 53.28C442.77 53.0653 443.157 52.958 443.587 52.958C444.091 52.958 444.492 53.07 444.791 53.294C445.099 53.5087 445.332 53.8073 445.491 54.19C445.817 53.8353 446.158 53.5413 446.513 53.308C446.877 53.0747 447.273 52.958 447.703 52.958C448.431 52.958 448.967 53.196 449.313 53.672C449.658 54.148 449.831 54.82 449.831 55.688V60H448.207V55.898C448.207 55.3287 448.118 54.9273 447.941 54.694C447.773 54.4607 447.511 54.344 447.157 54.344C446.727 54.344 446.247 54.6287 445.715 55.198V60H444.105V55.898C444.105 55.3287 444.016 54.9273 443.839 54.694C443.671 54.4607 443.405 54.344 443.041 54.344C442.611 54.344 442.131 54.6287 441.599 55.198V60H439.989ZM454.602 60.168C454.032 60.168 453.5 60.028 453.006 59.748C452.511 59.4587 452.11 59.048 451.802 58.516C451.494 57.9747 451.34 57.326 451.34 56.57C451.34 55.8047 451.494 55.156 451.802 54.624C452.11 54.0827 452.511 53.672 453.006 53.392C453.5 53.1027 454.032 52.958 454.602 52.958C455.18 52.958 455.717 53.1027 456.212 53.392C456.706 53.672 457.108 54.0827 457.416 54.624C457.724 55.156 457.878 55.8047 457.878 56.57C457.878 57.326 457.724 57.9747 457.416 58.516C457.108 59.048 456.706 59.4587 456.212 59.748C455.717 60.028 455.18 60.168 454.602 60.168ZM454.602 58.852C455.106 58.852 455.502 58.642 455.792 58.222C456.081 57.802 456.226 57.2513 456.226 56.57C456.226 55.8793 456.081 55.324 455.792 54.904C455.502 54.484 455.106 54.274 454.602 54.274C454.098 54.274 453.701 54.484 453.412 54.904C453.132 55.324 452.992 55.8793 452.992 56.57C452.992 57.2513 453.132 57.802 453.412 58.222C453.701 58.642 454.098 58.852 454.602 58.852ZM459.471 60V53.126H461.081V60H459.471ZM460.283 51.922C459.994 51.922 459.761 51.838 459.583 51.67C459.406 51.502 459.317 51.278 459.317 50.998C459.317 50.7273 459.406 50.508 459.583 50.34C459.761 50.172 459.994 50.088 460.283 50.088C460.573 50.088 460.806 50.172 460.983 50.34C461.161 50.508 461.249 50.7273 461.249 50.998C461.249 51.278 461.161 51.502 460.983 51.67C460.806 51.838 460.573 51.922 460.283 51.922ZM465.543 60.168C464.685 60.168 463.999 59.8507 463.485 59.216C462.972 58.5813 462.715 57.6993 462.715 56.57C462.715 55.8233 462.851 55.1793 463.121 54.638C463.401 54.0967 463.765 53.6813 464.213 53.392C464.661 53.1027 465.133 52.958 465.627 52.958C466.019 52.958 466.351 53.028 466.621 53.168C466.901 53.2987 467.172 53.4807 467.433 53.714L467.377 52.608V50.116H468.987V60H467.657L467.545 59.258H467.489C467.237 59.51 466.943 59.7247 466.607 59.902C466.271 60.0793 465.917 60.168 465.543 60.168ZM465.935 58.838C466.449 58.838 466.929 58.5813 467.377 58.068V54.862C467.144 54.6473 466.911 54.498 466.677 54.414C466.444 54.33 466.211 54.288 465.977 54.288C465.539 54.288 465.161 54.4887 464.843 54.89C464.535 55.282 464.381 55.8373 464.381 56.556C464.381 57.2933 464.517 57.858 464.787 58.25C465.058 58.642 465.441 58.838 465.935 58.838Z" fill="#232A3D"/>
<path d="M425.444 110.168C424.651 110.168 424.086 109.939 423.75 109.482C423.423 109.015 423.26 108.413 423.26 107.676V104.4H422.28V103.196L423.344 103.126L423.54 101.25H424.884V103.126H426.634V104.4H424.884V107.676C424.884 108.479 425.206 108.88 425.85 108.88C425.971 108.88 426.097 108.866 426.228 108.838C426.359 108.801 426.471 108.763 426.564 108.726L426.844 109.916C426.657 109.981 426.443 110.037 426.2 110.084C425.967 110.14 425.715 110.168 425.444 110.168ZM429.446 110.168C428.848 110.168 428.358 109.981 427.976 109.608C427.602 109.235 427.416 108.749 427.416 108.152C427.416 107.415 427.738 106.845 428.382 106.444C429.026 106.033 430.052 105.753 431.462 105.604C431.452 105.24 431.354 104.927 431.168 104.666C430.99 104.395 430.668 104.26 430.202 104.26C429.866 104.26 429.534 104.325 429.208 104.456C428.89 104.587 428.578 104.745 428.27 104.932L427.682 103.854C428.064 103.611 428.494 103.401 428.97 103.224C429.455 103.047 429.968 102.958 430.51 102.958C431.368 102.958 432.008 103.215 432.428 103.728C432.857 104.232 433.072 104.965 433.072 105.926V110H431.742L431.63 109.244H431.574C431.266 109.505 430.934 109.725 430.58 109.902C430.234 110.079 429.856 110.168 429.446 110.168ZM429.964 108.908C430.244 108.908 430.496 108.843 430.72 108.712C430.953 108.572 431.2 108.385 431.462 108.152V106.612C430.528 106.733 429.88 106.915 429.516 107.158C429.152 107.391 428.97 107.681 428.97 108.026C428.97 108.334 429.063 108.558 429.25 108.698C429.436 108.838 429.674 108.908 429.964 108.908ZM434.999 110V103.126H436.329L436.441 104.05H436.497C436.805 103.751 437.141 103.495 437.505 103.28C437.869 103.065 438.284 102.958 438.751 102.958C439.488 102.958 440.025 103.196 440.361 103.672C440.697 104.148 440.865 104.82 440.865 105.688V110H439.255V105.898C439.255 105.329 439.171 104.927 439.003 104.694C438.835 104.461 438.559 104.344 438.177 104.344C437.878 104.344 437.612 104.419 437.379 104.568C437.155 104.708 436.898 104.918 436.609 105.198V110H434.999ZM442.833 110V100.116H444.443V102.664L444.387 103.994C444.676 103.723 444.998 103.485 445.353 103.28C445.707 103.065 446.118 102.958 446.585 102.958C447.322 102.958 447.859 103.196 448.195 103.672C448.531 104.148 448.699 104.82 448.699 105.688V110H447.089V105.898C447.089 105.329 447.005 104.927 446.837 104.694C446.669 104.461 446.393 104.344 446.011 104.344C445.712 104.344 445.446 104.419 445.213 104.568C444.989 104.708 444.732 104.918 444.443 105.198V110H442.833Z" fill="#232A3D"/>
<path d="M423.022 161.716V152.126H424.352L424.464 152.854H424.52C424.809 152.611 425.131 152.401 425.486 152.224C425.85 152.047 426.219 151.958 426.592 151.958C427.451 151.958 428.113 152.275 428.58 152.91C429.056 153.545 429.294 154.394 429.294 155.458C429.294 156.242 429.154 156.914 428.874 157.474C428.594 158.025 428.23 158.445 427.782 158.734C427.343 159.023 426.867 159.168 426.354 159.168C426.055 159.168 425.757 159.103 425.458 158.972C425.159 158.832 424.87 158.645 424.59 158.412L424.632 159.56V161.716H423.022ZM426.018 157.838C426.475 157.838 426.858 157.637 427.166 157.236C427.474 156.835 427.628 156.247 427.628 155.472C427.628 154.781 427.511 154.245 427.278 153.862C427.045 153.479 426.667 153.288 426.144 153.288C425.659 153.288 425.155 153.545 424.632 154.058V157.264C424.884 157.469 425.127 157.619 425.36 157.712C425.593 157.796 425.813 157.838 426.018 157.838ZM433.738 159.168C433.169 159.168 432.637 159.028 432.142 158.748C431.648 158.459 431.246 158.048 430.938 157.516C430.63 156.975 430.476 156.326 430.476 155.57C430.476 154.805 430.63 154.156 430.938 153.624C431.246 153.083 431.648 152.672 432.142 152.392C432.637 152.103 433.169 151.958 433.738 151.958C434.317 151.958 434.854 152.103 435.348 152.392C435.843 152.672 436.244 153.083 436.552 153.624C436.86 154.156 437.014 154.805 437.014 155.57C437.014 156.326 436.86 156.975 436.552 157.516C436.244 158.048 435.843 158.459 435.348 158.748C434.854 159.028 434.317 159.168 433.738 159.168ZM433.738 157.852C434.242 157.852 434.639 157.642 434.928 157.222C435.218 156.802 435.362 156.251 435.362 155.57C435.362 154.879 435.218 154.324 434.928 153.904C434.639 153.484 434.242 153.274 433.738 153.274C433.234 153.274 432.838 153.484 432.548 153.904C432.268 154.324 432.128 154.879 432.128 155.57C432.128 156.251 432.268 156.802 432.548 157.222C432.838 157.642 433.234 157.852 433.738 157.852ZM438.608 159V152.126H440.218V159H438.608ZM439.42 150.922C439.131 150.922 438.897 150.838 438.72 150.67C438.543 150.502 438.454 150.278 438.454 149.998C438.454 149.727 438.543 149.508 438.72 149.34C438.897 149.172 439.131 149.088 439.42 149.088C439.709 149.088 439.943 149.172 440.12 149.34C440.297 149.508 440.386 149.727 440.386 149.998C440.386 150.278 440.297 150.502 440.12 150.67C439.943 150.838 439.709 150.922 439.42 150.922ZM442.272 159V152.126H443.602L443.714 153.05H443.77C444.078 152.751 444.414 152.495 444.778 152.28C445.142 152.065 445.557 151.958 446.024 151.958C446.761 151.958 447.298 152.196 447.634 152.672C447.97 153.148 448.138 153.82 448.138 154.688V159H446.528V154.898C446.528 154.329 446.444 153.927 446.276 153.694C446.108 153.461 445.833 153.344 445.45 153.344C445.151 153.344 444.885 153.419 444.652 153.568C444.428 153.708 444.171 153.918 443.882 154.198V159H442.272ZM452.528 159.168C451.735 159.168 451.17 158.939 450.834 158.482C450.507 158.015 450.344 157.413 450.344 156.676V153.4H449.364V152.196L450.428 152.126L450.624 150.25H451.968V152.126H453.718V153.4H451.968V156.676C451.968 157.479 452.29 157.88 452.934 157.88C453.055 157.88 453.181 157.866 453.312 157.838C453.443 157.801 453.555 157.763 453.648 157.726L453.928 158.916C453.741 158.981 453.527 159.037 453.284 159.084C453.051 159.14 452.799 159.168 452.528 159.168ZM456.299 159L454.479 152.126H456.103L456.929 155.696C457.003 156.023 457.064 156.349 457.111 156.676C457.167 157.003 457.227 157.334 457.293 157.67H457.349C457.414 157.334 457.479 157.003 457.545 156.676C457.619 156.34 457.699 156.013 457.783 155.696L458.679 152.126H460.149L461.059 155.696C461.143 156.023 461.222 156.349 461.297 156.676C461.371 157.003 461.446 157.334 461.521 157.67H461.577C461.642 157.334 461.703 157.003 461.759 156.676C461.815 156.349 461.875 156.023 461.941 155.696L462.767 152.126H464.279L462.529 159H460.611L459.813 155.794C459.738 155.467 459.668 155.145 459.603 154.828C459.537 154.501 459.467 154.156 459.393 153.792H459.337C459.271 154.156 459.206 154.501 459.141 154.828C459.075 155.155 459.005 155.481 458.931 155.808L458.147 159H456.299ZM465.637 159V152.126H467.247V159H465.637ZM466.449 150.922C466.16 150.922 465.927 150.838 465.749 150.67C465.572 150.502 465.483 150.278 465.483 149.998C465.483 149.727 465.572 149.508 465.749 149.34C465.927 149.172 466.16 149.088 466.449 149.088C466.739 149.088 466.972 149.172 467.149 149.34C467.327 149.508 467.415 149.727 467.415 149.998C467.415 150.278 467.327 150.502 467.149 150.67C466.972 150.838 466.739 150.922 466.449 150.922ZM471.219 159.168C470.753 159.168 470.286 159.079 469.819 158.902C469.353 158.715 468.951 158.487 468.615 158.216L469.371 157.18C469.679 157.413 469.987 157.6 470.295 157.74C470.603 157.88 470.93 157.95 471.275 157.95C471.649 157.95 471.924 157.871 472.101 157.712C472.279 157.553 472.367 157.357 472.367 157.124C472.367 156.928 472.293 156.769 472.143 156.648C472.003 156.517 471.821 156.405 471.597 156.312C471.373 156.209 471.14 156.111 470.897 156.018C470.599 155.906 470.3 155.771 470.001 155.612C469.712 155.444 469.474 155.234 469.287 154.982C469.101 154.721 469.007 154.399 469.007 154.016C469.007 153.409 469.231 152.915 469.679 152.532C470.127 152.149 470.734 151.958 471.499 151.958C471.985 151.958 472.419 152.042 472.801 152.21C473.184 152.378 473.515 152.569 473.795 152.784L473.053 153.764C472.811 153.587 472.563 153.447 472.311 153.344C472.069 153.232 471.812 153.176 471.541 153.176C471.196 153.176 470.939 153.251 470.771 153.4C470.603 153.54 470.519 153.717 470.519 153.932C470.519 154.203 470.659 154.408 470.939 154.548C471.219 154.688 471.546 154.823 471.919 154.954C472.237 155.066 472.545 155.206 472.843 155.374C473.142 155.533 473.389 155.743 473.585 156.004C473.791 156.265 473.893 156.611 473.893 157.04C473.893 157.628 473.665 158.132 473.207 158.552C472.75 158.963 472.087 159.168 471.219 159.168ZM478.271 159.168C477.636 159.168 477.062 159.028 476.549 158.748C476.035 158.459 475.629 158.048 475.331 157.516C475.032 156.975 474.883 156.326 474.883 155.57C474.883 154.823 475.032 154.179 475.331 153.638C475.639 153.097 476.035 152.681 476.521 152.392C477.006 152.103 477.515 151.958 478.047 151.958C478.672 151.958 479.195 152.098 479.615 152.378C480.035 152.649 480.352 153.031 480.567 153.526C480.781 154.011 480.889 154.576 480.889 155.22C480.889 155.556 480.865 155.817 480.819 156.004H476.451C476.525 156.611 476.745 157.082 477.109 157.418C477.473 157.754 477.93 157.922 478.481 157.922C478.779 157.922 479.055 157.88 479.307 157.796C479.568 157.703 479.825 157.577 480.077 157.418L480.623 158.426C480.296 158.641 479.932 158.818 479.531 158.958C479.129 159.098 478.709 159.168 478.271 159.168ZM476.437 154.912H479.489C479.489 154.38 479.372 153.965 479.139 153.666C478.905 153.358 478.555 153.204 478.089 153.204C477.687 153.204 477.328 153.353 477.011 153.652C476.703 153.941 476.511 154.361 476.437 154.912ZM485.229 159V152.126H486.559L486.671 153.064H486.727C487.016 152.756 487.329 152.495 487.665 152.28C488.01 152.065 488.398 151.958 488.827 151.958C489.331 151.958 489.732 152.07 490.031 152.294C490.339 152.509 490.572 152.807 490.731 153.19C491.058 152.835 491.398 152.541 491.753 152.308C492.117 152.075 492.514 151.958 492.943 151.958C493.671 151.958 494.208 152.196 494.553 152.672C494.898 153.148 495.071 153.82 495.071 154.688V159H493.447V154.898C493.447 154.329 493.358 153.927 493.181 153.694C493.013 153.461 492.752 153.344 492.397 153.344C491.968 153.344 491.487 153.629 490.955 154.198V159H489.345V154.898C489.345 154.329 489.256 153.927 489.079 153.694C488.911 153.461 488.645 153.344 488.281 153.344C487.852 153.344 487.371 153.629 486.839 154.198V159H485.229ZM499.072 159.168C498.335 159.168 497.798 158.93 497.462 158.454C497.126 157.978 496.958 157.306 496.958 156.438V152.126H498.568V156.228C498.568 156.797 498.652 157.199 498.82 157.432C498.988 157.665 499.259 157.782 499.632 157.782C499.931 157.782 500.192 157.707 500.416 157.558C500.649 157.409 500.897 157.166 501.158 156.83V152.126H502.768V159H501.452L501.326 157.992H501.284C500.985 158.347 500.659 158.631 500.304 158.846C499.949 159.061 499.539 159.168 499.072 159.168ZM506.375 159.168C505.806 159.168 505.4 158.995 505.157 158.65C504.924 158.305 504.807 157.833 504.807 157.236V149.116H506.417V157.32C506.417 157.516 506.454 157.656 506.529 157.74C506.604 157.815 506.683 157.852 506.767 157.852C506.804 157.852 506.837 157.852 506.865 157.852C506.902 157.843 506.954 157.833 507.019 157.824L507.229 159.028C507.136 159.065 507.014 159.098 506.865 159.126C506.725 159.154 506.562 159.168 506.375 159.168ZM511.03 159.168C510.237 159.168 509.672 158.939 509.336 158.482C509.009 158.015 508.846 157.413 508.846 156.676V153.4H507.866V152.196L508.93 152.126L509.126 150.25H510.47V152.126H512.22V153.4H510.47V156.676C510.47 157.479 510.792 157.88 511.436 157.88C511.557 157.88 511.683 157.866 511.814 157.838C511.945 157.801 512.057 157.763 512.15 157.726L512.43 158.916C512.243 158.981 512.029 159.037 511.786 159.084C511.553 159.14 511.301 159.168 511.03 159.168ZM513.667 159V152.126H515.277V159H513.667ZM514.479 150.922C514.189 150.922 513.956 150.838 513.779 150.67C513.601 150.502 513.513 150.278 513.513 149.998C513.513 149.727 513.601 149.508 513.779 149.34C513.956 149.172 514.189 149.088 514.479 149.088C514.768 149.088 515.001 149.172 515.179 149.34C515.356 149.508 515.445 149.727 515.445 149.998C515.445 150.278 515.356 150.502 515.179 150.67C515.001 150.838 514.768 150.922 514.479 150.922ZM517.331 161.716V152.126H518.661L518.773 152.854H518.829C519.118 152.611 519.44 152.401 519.795 152.224C520.159 152.047 520.527 151.958 520.901 151.958C521.759 151.958 522.422 152.275 522.889 152.91C523.365 153.545 523.603 154.394 523.603 155.458C523.603 156.242 523.463 156.914 523.183 157.474C522.903 158.025 522.539 158.445 522.091 158.734C521.652 159.023 521.176 159.168 520.663 159.168C520.364 159.168 520.065 159.103 519.767 158.972C519.468 158.832 519.179 158.645 518.899 158.412L518.941 159.56V161.716H517.331ZM520.327 157.838C520.784 157.838 521.167 157.637 521.475 157.236C521.783 156.835 521.937 156.247 521.937 155.472C521.937 154.781 521.82 154.245 521.587 153.862C521.353 153.479 520.975 153.288 520.453 153.288C519.967 153.288 519.463 153.545 518.941 154.058V157.264C519.193 157.469 519.435 157.619 519.669 157.712C519.902 157.796 520.121 157.838 520.327 157.838ZM526.801 159.168C526.232 159.168 525.826 158.995 525.583 158.65C525.35 158.305 525.233 157.833 525.233 157.236V149.116H526.843V157.32C526.843 157.516 526.88 157.656 526.955 157.74C527.03 157.815 527.109 157.852 527.193 157.852C527.23 157.852 527.263 157.852 527.291 157.852C527.328 157.843 527.38 157.833 527.445 157.824L527.655 159.028C527.562 159.065 527.44 159.098 527.291 159.126C527.151 159.154 526.988 159.168 526.801 159.168ZM529.034 159V152.126H530.644V159H529.034ZM529.846 150.922C529.556 150.922 529.323 150.838 529.146 150.67C528.968 150.502 528.88 150.278 528.88 149.998C528.88 149.727 528.968 149.508 529.146 149.34C529.323 149.172 529.556 149.088 529.846 149.088C530.135 149.088 530.368 149.172 530.546 149.34C530.723 149.508 530.812 149.727 530.812 149.998C530.812 150.278 530.723 150.502 530.546 150.67C530.368 150.838 530.135 150.922 529.846 150.922ZM535.568 159.168C534.942 159.168 534.378 159.028 533.874 158.748C533.379 158.459 532.982 158.048 532.684 157.516C532.394 156.975 532.25 156.326 532.25 155.57C532.25 154.805 532.408 154.156 532.726 153.624C533.043 153.083 533.463 152.672 533.986 152.392C534.518 152.103 535.087 151.958 535.694 151.958C536.132 151.958 536.515 152.033 536.842 152.182C537.168 152.331 537.458 152.513 537.71 152.728L536.926 153.778C536.748 153.619 536.566 153.498 536.38 153.414C536.193 153.321 535.992 153.274 535.778 153.274C535.227 153.274 534.774 153.484 534.42 153.904C534.074 154.324 533.902 154.879 533.902 155.57C533.902 156.251 534.07 156.802 534.406 157.222C534.751 157.642 535.194 157.852 535.736 157.852C536.006 157.852 536.258 157.796 536.492 157.684C536.734 157.563 536.954 157.423 537.15 157.264L537.808 158.328C537.49 158.608 537.136 158.818 536.744 158.958C536.352 159.098 535.96 159.168 535.568 159.168ZM540.694 159.168C540.097 159.168 539.607 158.981 539.224 158.608C538.851 158.235 538.664 157.749 538.664 157.152C538.664 156.415 538.986 155.845 539.63 155.444C540.274 155.033 541.301 154.753 542.71 154.604C542.701 154.24 542.603 153.927 542.416 153.666C542.239 153.395 541.917 153.26 541.45 153.26C541.114 153.26 540.783 153.325 540.456 153.456C540.139 153.587 539.826 153.745 539.518 153.932L538.93 152.854C539.313 152.611 539.742 152.401 540.218 152.224C540.703 152.047 541.217 151.958 541.758 151.958C542.617 151.958 543.256 152.215 543.676 152.728C544.105 153.232 544.32 153.965 544.32 154.926V159H542.99L542.878 158.244H542.822C542.514 158.505 542.183 158.725 541.828 158.902C541.483 159.079 541.105 159.168 540.694 159.168ZM541.212 157.908C541.492 157.908 541.744 157.843 541.968 157.712C542.201 157.572 542.449 157.385 542.71 157.152V155.612C541.777 155.733 541.128 155.915 540.764 156.158C540.4 156.391 540.218 156.681 540.218 157.026C540.218 157.334 540.311 157.558 540.498 157.698C540.685 157.838 540.923 157.908 541.212 157.908ZM548.45 159.168C547.657 159.168 547.092 158.939 546.756 158.482C546.429 158.015 546.266 157.413 546.266 156.676V153.4H545.286V152.196L546.35 152.126L546.546 150.25H547.89V152.126H549.64V153.4H547.89V156.676C547.89 157.479 548.212 157.88 548.856 157.88C548.977 157.88 549.103 157.866 549.234 157.838C549.365 157.801 549.477 157.763 549.57 157.726L549.85 158.916C549.663 158.981 549.449 159.037 549.206 159.084C548.973 159.14 548.721 159.168 548.45 159.168ZM551.086 159V152.126H552.696V159H551.086ZM551.898 150.922C551.609 150.922 551.376 150.838 551.198 150.67C551.021 150.502 550.932 150.278 550.932 149.998C550.932 149.727 551.021 149.508 551.198 149.34C551.376 149.172 551.609 149.088 551.898 149.088C552.188 149.088 552.421 149.172 552.598 149.34C552.776 149.508 552.864 149.727 552.864 149.998C552.864 150.278 552.776 150.502 552.598 150.67C552.421 150.838 552.188 150.922 551.898 150.922ZM557.565 159.168C556.995 159.168 556.463 159.028 555.969 158.748C555.474 158.459 555.073 158.048 554.765 157.516C554.457 156.975 554.303 156.326 554.303 155.57C554.303 154.805 554.457 154.156 554.765 153.624C555.073 153.083 555.474 152.672 555.969 152.392C556.463 152.103 556.995 151.958 557.565 151.958C558.143 151.958 558.68 152.103 559.175 152.392C559.669 152.672 560.071 153.083 560.379 153.624C560.687 154.156 560.841 154.805 560.841 155.57C560.841 156.326 560.687 156.975 560.379 157.516C560.071 158.048 559.669 158.459 559.175 158.748C558.68 159.028 558.143 159.168 557.565 159.168ZM557.565 157.852C558.069 157.852 558.465 157.642 558.755 157.222C559.044 156.802 559.189 156.251 559.189 155.57C559.189 154.879 559.044 154.324 558.755 153.904C558.465 153.484 558.069 153.274 557.565 153.274C557.061 153.274 556.664 153.484 556.375 153.904C556.095 154.324 555.955 154.879 555.955 155.57C555.955 156.251 556.095 156.802 556.375 157.222C556.664 157.642 557.061 157.852 557.565 157.852ZM562.434 159V152.126H563.764L563.876 153.05H563.932C564.24 152.751 564.576 152.495 564.94 152.28C565.304 152.065 565.719 151.958 566.186 151.958C566.923 151.958 567.46 152.196 567.796 152.672C568.132 153.148 568.3 153.82 568.3 154.688V159H566.69V154.898C566.69 154.329 566.606 153.927 566.438 153.694C566.27 153.461 565.995 153.344 565.612 153.344C565.313 153.344 565.047 153.419 564.814 153.568C564.59 153.708 564.333 153.918 564.044 154.198V159H562.434Z" fill="#232A3D"/>
<path d="M423.022 209.716V200.126H424.352L424.464 200.854H424.52C424.809 200.611 425.131 200.401 425.486 200.224C425.85 200.047 426.219 199.958 426.592 199.958C427.451 199.958 428.113 200.275 428.58 200.91C429.056 201.545 429.294 202.394 429.294 203.458C429.294 204.242 429.154 204.914 428.874 205.474C428.594 206.025 428.23 206.445 427.782 206.734C427.343 207.023 426.867 207.168 426.354 207.168C426.055 207.168 425.757 207.103 425.458 206.972C425.159 206.832 424.87 206.645 424.59 206.412L424.632 207.56V209.716H423.022ZM426.018 205.838C426.475 205.838 426.858 205.637 427.166 205.236C427.474 204.835 427.628 204.247 427.628 203.472C427.628 202.781 427.511 202.245 427.278 201.862C427.045 201.479 426.667 201.288 426.144 201.288C425.659 201.288 425.155 201.545 424.632 202.058V205.264C424.884 205.469 425.127 205.619 425.36 205.712C425.593 205.796 425.813 205.838 426.018 205.838ZM433.738 207.168C433.169 207.168 432.637 207.028 432.142 206.748C431.648 206.459 431.246 206.048 430.938 205.516C430.63 204.975 430.476 204.326 430.476 203.57C430.476 202.805 430.63 202.156 430.938 201.624C431.246 201.083 431.648 200.672 432.142 200.392C432.637 200.103 433.169 199.958 433.738 199.958C434.317 199.958 434.854 200.103 435.348 200.392C435.843 200.672 436.244 201.083 436.552 201.624C436.86 202.156 437.014 202.805 437.014 203.57C437.014 204.326 436.86 204.975 436.552 205.516C436.244 206.048 435.843 206.459 435.348 206.748C434.854 207.028 434.317 207.168 433.738 207.168ZM433.738 205.852C434.242 205.852 434.639 205.642 434.928 205.222C435.218 204.802 435.362 204.251 435.362 203.57C435.362 202.879 435.218 202.324 434.928 201.904C434.639 201.484 434.242 201.274 433.738 201.274C433.234 201.274 432.838 201.484 432.548 201.904C432.268 202.324 432.128 202.879 432.128 203.57C432.128 204.251 432.268 204.802 432.548 205.222C432.838 205.642 433.234 205.852 433.738 205.852ZM438.608 207V200.126H440.218V207H438.608ZM439.42 198.922C439.131 198.922 438.897 198.838 438.72 198.67C438.543 198.502 438.454 198.278 438.454 197.998C438.454 197.727 438.543 197.508 438.72 197.34C438.897 197.172 439.131 197.088 439.42 197.088C439.709 197.088 439.943 197.172 440.12 197.34C440.297 197.508 440.386 197.727 440.386 197.998C440.386 198.278 440.297 198.502 440.12 198.67C439.943 198.838 439.709 198.922 439.42 198.922ZM442.272 207V200.126H443.602L443.714 201.05H443.77C444.078 200.751 444.414 200.495 444.778 200.28C445.142 200.065 445.557 199.958 446.024 199.958C446.761 199.958 447.298 200.196 447.634 200.672C447.97 201.148 448.138 201.82 448.138 202.688V207H446.528V202.898C446.528 202.329 446.444 201.927 446.276 201.694C446.108 201.461 445.833 201.344 445.45 201.344C445.151 201.344 444.885 201.419 444.652 201.568C444.428 201.708 444.171 201.918 443.882 202.198V207H442.272ZM452.528 207.168C451.735 207.168 451.17 206.939 450.834 206.482C450.507 206.015 450.344 205.413 450.344 204.676V201.4H449.364V200.196L450.428 200.126L450.624 198.25H451.968V200.126H453.718V201.4H451.968V204.676C451.968 205.479 452.29 205.88 452.934 205.88C453.055 205.88 453.181 205.866 453.312 205.838C453.443 205.801 453.555 205.763 453.648 205.726L453.928 206.916C453.741 206.981 453.527 207.037 453.284 207.084C453.051 207.14 452.799 207.168 452.528 207.168ZM456.299 207L454.479 200.126H456.103L456.929 203.696C457.003 204.023 457.064 204.349 457.111 204.676C457.167 205.003 457.227 205.334 457.293 205.67H457.349C457.414 205.334 457.479 205.003 457.545 204.676C457.619 204.34 457.699 204.013 457.783 203.696L458.679 200.126H460.149L461.059 203.696C461.143 204.023 461.222 204.349 461.297 204.676C461.371 205.003 461.446 205.334 461.521 205.67H461.577C461.642 205.334 461.703 205.003 461.759 204.676C461.815 204.349 461.875 204.023 461.941 203.696L462.767 200.126H464.279L462.529 207H460.611L459.813 203.794C459.738 203.467 459.668 203.145 459.603 202.828C459.537 202.501 459.467 202.156 459.393 201.792H459.337C459.271 202.156 459.206 202.501 459.141 202.828C459.075 203.155 459.005 203.481 458.931 203.808L458.147 207H456.299ZM465.637 207V200.126H467.247V207H465.637ZM466.449 198.922C466.16 198.922 465.927 198.838 465.749 198.67C465.572 198.502 465.483 198.278 465.483 197.998C465.483 197.727 465.572 197.508 465.749 197.34C465.927 197.172 466.16 197.088 466.449 197.088C466.739 197.088 466.972 197.172 467.149 197.34C467.327 197.508 467.415 197.727 467.415 197.998C467.415 198.278 467.327 198.502 467.149 198.67C466.972 198.838 466.739 198.922 466.449 198.922ZM471.219 207.168C470.753 207.168 470.286 207.079 469.819 206.902C469.353 206.715 468.951 206.487 468.615 206.216L469.371 205.18C469.679 205.413 469.987 205.6 470.295 205.74C470.603 205.88 470.93 205.95 471.275 205.95C471.649 205.95 471.924 205.871 472.101 205.712C472.279 205.553 472.367 205.357 472.367 205.124C472.367 204.928 472.293 204.769 472.143 204.648C472.003 204.517 471.821 204.405 471.597 204.312C471.373 204.209 471.14 204.111 470.897 204.018C470.599 203.906 470.3 203.771 470.001 203.612C469.712 203.444 469.474 203.234 469.287 202.982C469.101 202.721 469.007 202.399 469.007 202.016C469.007 201.409 469.231 200.915 469.679 200.532C470.127 200.149 470.734 199.958 471.499 199.958C471.985 199.958 472.419 200.042 472.801 200.21C473.184 200.378 473.515 200.569 473.795 200.784L473.053 201.764C472.811 201.587 472.563 201.447 472.311 201.344C472.069 201.232 471.812 201.176 471.541 201.176C471.196 201.176 470.939 201.251 470.771 201.4C470.603 201.54 470.519 201.717 470.519 201.932C470.519 202.203 470.659 202.408 470.939 202.548C471.219 202.688 471.546 202.823 471.919 202.954C472.237 203.066 472.545 203.206 472.843 203.374C473.142 203.533 473.389 203.743 473.585 204.004C473.791 204.265 473.893 204.611 473.893 205.04C473.893 205.628 473.665 206.132 473.207 206.552C472.75 206.963 472.087 207.168 471.219 207.168ZM478.271 207.168C477.636 207.168 477.062 207.028 476.549 206.748C476.035 206.459 475.629 206.048 475.331 205.516C475.032 204.975 474.883 204.326 474.883 203.57C474.883 202.823 475.032 202.179 475.331 201.638C475.639 201.097 476.035 200.681 476.521 200.392C477.006 200.103 477.515 199.958 478.047 199.958C478.672 199.958 479.195 200.098 479.615 200.378C480.035 200.649 480.352 201.031 480.567 201.526C480.781 202.011 480.889 202.576 480.889 203.22C480.889 203.556 480.865 203.817 480.819 204.004H476.451C476.525 204.611 476.745 205.082 477.109 205.418C477.473 205.754 477.93 205.922 478.481 205.922C478.779 205.922 479.055 205.88 479.307 205.796C479.568 205.703 479.825 205.577 480.077 205.418L480.623 206.426C480.296 206.641 479.932 206.818 479.531 206.958C479.129 207.098 478.709 207.168 478.271 207.168ZM476.437 202.912H479.489C479.489 202.38 479.372 201.965 479.139 201.666C478.905 201.358 478.555 201.204 478.089 201.204C477.687 201.204 477.328 201.353 477.011 201.652C476.703 201.941 476.511 202.361 476.437 202.912ZM486.895 207.168C486.298 207.168 485.808 206.981 485.425 206.608C485.052 206.235 484.865 205.749 484.865 205.152C484.865 204.415 485.187 203.845 485.831 203.444C486.475 203.033 487.502 202.753 488.911 202.604C488.902 202.24 488.804 201.927 488.617 201.666C488.44 201.395 488.118 201.26 487.651 201.26C487.315 201.26 486.984 201.325 486.657 201.456C486.34 201.587 486.027 201.745 485.719 201.932L485.131 200.854C485.514 200.611 485.943 200.401 486.419 200.224C486.904 200.047 487.418 199.958 487.959 199.958C488.818 199.958 489.457 200.215 489.877 200.728C490.306 201.232 490.521 201.965 490.521 202.926V207H489.191L489.079 206.244H489.023C488.715 206.505 488.384 206.725 488.029 206.902C487.684 207.079 487.306 207.168 486.895 207.168ZM487.413 205.908C487.693 205.908 487.945 205.843 488.169 205.712C488.402 205.572 488.65 205.385 488.911 205.152V203.612C487.978 203.733 487.329 203.915 486.965 204.158C486.601 204.391 486.419 204.681 486.419 205.026C486.419 205.334 486.512 205.558 486.699 205.698C486.886 205.838 487.124 205.908 487.413 205.908ZM494.856 207.168C493.997 207.168 493.311 206.851 492.798 206.216C492.284 205.581 492.028 204.699 492.028 203.57C492.028 202.823 492.163 202.179 492.434 201.638C492.714 201.097 493.078 200.681 493.526 200.392C493.974 200.103 494.445 199.958 494.94 199.958C495.332 199.958 495.663 200.028 495.934 200.168C496.214 200.299 496.484 200.481 496.746 200.714L496.69 199.608V197.116H498.3V207H496.97L496.858 206.258H496.802C496.55 206.51 496.256 206.725 495.92 206.902C495.584 207.079 495.229 207.168 494.856 207.168ZM495.248 205.838C495.761 205.838 496.242 205.581 496.69 205.068V201.862C496.456 201.647 496.223 201.498 495.99 201.414C495.756 201.33 495.523 201.288 495.29 201.288C494.851 201.288 494.473 201.489 494.156 201.89C493.848 202.282 493.694 202.837 493.694 203.556C493.694 204.293 493.829 204.858 494.1 205.25C494.37 205.642 494.753 205.838 495.248 205.838ZM502.758 207.168C501.899 207.168 501.213 206.851 500.7 206.216C500.187 205.581 499.93 204.699 499.93 203.57C499.93 202.823 500.065 202.179 500.336 201.638C500.616 201.097 500.98 200.681 501.428 200.392C501.876 200.103 502.347 199.958 502.842 199.958C503.234 199.958 503.565 200.028 503.836 200.168C504.116 200.299 504.387 200.481 504.648 200.714L504.592 199.608V197.116H506.202V207H504.872L504.76 206.258H504.704C504.452 206.51 504.158 206.725 503.822 206.902C503.486 207.079 503.131 207.168 502.758 207.168ZM503.15 205.838C503.663 205.838 504.144 205.581 504.592 205.068V201.862C504.359 201.647 504.125 201.498 503.892 201.414C503.659 201.33 503.425 201.288 503.192 201.288C502.753 201.288 502.375 201.489 502.058 201.89C501.75 202.282 501.596 202.837 501.596 203.556C501.596 204.293 501.731 204.858 502.002 205.25C502.273 205.642 502.655 205.838 503.15 205.838ZM508.252 207V200.126H509.862V207H508.252ZM509.064 198.922C508.775 198.922 508.542 198.838 508.364 198.67C508.187 198.502 508.098 198.278 508.098 197.998C508.098 197.727 508.187 197.508 508.364 197.34C508.542 197.172 508.775 197.088 509.064 197.088C509.354 197.088 509.587 197.172 509.764 197.34C509.942 197.508 510.03 197.727 510.03 197.998C510.03 198.278 509.942 198.502 509.764 198.67C509.587 198.838 509.354 198.922 509.064 198.922ZM514.339 207.168C513.545 207.168 512.981 206.939 512.645 206.482C512.318 206.015 512.155 205.413 512.155 204.676V201.4H511.175V200.196L512.239 200.126L512.435 198.25H513.779V200.126H515.529V201.4H513.779V204.676C513.779 205.479 514.101 205.88 514.745 205.88C514.866 205.88 514.992 205.866 515.123 205.838C515.253 205.801 515.365 205.763 515.459 205.726L515.739 206.916C515.552 206.981 515.337 207.037 515.095 207.084C514.861 207.14 514.609 207.168 514.339 207.168ZM516.975 207V200.126H518.585V207H516.975ZM517.787 198.922C517.498 198.922 517.264 198.838 517.087 198.67C516.91 198.502 516.821 198.278 516.821 197.998C516.821 197.727 516.91 197.508 517.087 197.34C517.264 197.172 517.498 197.088 517.787 197.088C518.076 197.088 518.31 197.172 518.487 197.34C518.664 197.508 518.753 197.727 518.753 197.998C518.753 198.278 518.664 198.502 518.487 198.67C518.31 198.838 518.076 198.922 517.787 198.922ZM523.453 207.168C522.884 207.168 522.352 207.028 521.857 206.748C521.363 206.459 520.961 206.048 520.653 205.516C520.345 204.975 520.191 204.326 520.191 203.57C520.191 202.805 520.345 202.156 520.653 201.624C520.961 201.083 521.363 200.672 521.857 200.392C522.352 200.103 522.884 199.958 523.453 199.958C524.032 199.958 524.569 200.103 525.063 200.392C525.558 200.672 525.959 201.083 526.267 201.624C526.575 202.156 526.729 202.805 526.729 203.57C526.729 204.326 526.575 204.975 526.267 205.516C525.959 206.048 525.558 206.459 525.063 206.748C524.569 207.028 524.032 207.168 523.453 207.168ZM523.453 205.852C523.957 205.852 524.354 205.642 524.643 205.222C524.933 204.802 525.077 204.251 525.077 203.57C525.077 202.879 524.933 202.324 524.643 201.904C524.354 201.484 523.957 201.274 523.453 201.274C522.949 201.274 522.553 201.484 522.263 201.904C521.983 202.324 521.843 202.879 521.843 203.57C521.843 204.251 521.983 204.802 522.263 205.222C522.553 205.642 522.949 205.852 523.453 205.852ZM528.323 207V200.126H529.653L529.765 201.05H529.821C530.129 200.751 530.465 200.495 530.829 200.28C531.193 200.065 531.608 199.958 532.075 199.958C532.812 199.958 533.349 200.196 533.685 200.672C534.021 201.148 534.189 201.82 534.189 202.688V207H532.579V202.898C532.579 202.329 532.495 201.927 532.327 201.694C532.159 201.461 531.883 201.344 531.501 201.344C531.202 201.344 530.936 201.419 530.703 201.568C530.479 201.708 530.222 201.918 529.933 202.198V207H528.323Z" fill="#232A3D"/>
<path d="M424.562 253L422.168 246.126H423.806L424.898 249.696C424.991 250.032 425.085 250.373 425.178 250.718C425.281 251.063 425.379 251.413 425.472 251.768H425.528C425.631 251.413 425.729 251.063 425.822 250.718C425.925 250.373 426.023 250.032 426.116 249.696L427.208 246.126H428.762L426.424 253H424.562ZM432.812 253.168C432.177 253.168 431.603 253.028 431.09 252.748C430.576 252.459 430.17 252.048 429.872 251.516C429.573 250.975 429.424 250.326 429.424 249.57C429.424 248.823 429.573 248.179 429.872 247.638C430.18 247.097 430.576 246.681 431.062 246.392C431.547 246.103 432.056 245.958 432.588 245.958C433.213 245.958 433.736 246.098 434.156 246.378C434.576 246.649 434.893 247.031 435.108 247.526C435.322 248.011 435.43 248.576 435.43 249.22C435.43 249.556 435.406 249.817 435.36 250.004H430.992C431.066 250.611 431.286 251.082 431.65 251.418C432.014 251.754 432.471 251.922 433.022 251.922C433.32 251.922 433.596 251.88 433.848 251.796C434.109 251.703 434.366 251.577 434.618 251.418L435.164 252.426C434.837 252.641 434.473 252.818 434.072 252.958C433.67 253.098 433.25 253.168 432.812 253.168ZM430.978 248.912H434.03C434.03 248.38 433.913 247.965 433.68 247.666C433.446 247.358 433.096 247.204 432.63 247.204C432.228 247.204 431.869 247.353 431.552 247.652C431.244 247.941 431.052 248.361 430.978 248.912ZM439.837 253.168C439.212 253.168 438.647 253.028 438.143 252.748C437.649 252.459 437.252 252.048 436.953 251.516C436.664 250.975 436.519 250.326 436.519 249.57C436.519 248.805 436.678 248.156 436.995 247.624C437.313 247.083 437.733 246.672 438.255 246.392C438.787 246.103 439.357 245.958 439.963 245.958C440.402 245.958 440.785 246.033 441.111 246.182C441.438 246.331 441.727 246.513 441.979 246.728L441.195 247.778C441.018 247.619 440.836 247.498 440.649 247.414C440.463 247.321 440.262 247.274 440.047 247.274C439.497 247.274 439.044 247.484 438.689 247.904C438.344 248.324 438.171 248.879 438.171 249.57C438.171 250.251 438.339 250.802 438.675 251.222C439.021 251.642 439.464 251.852 440.005 251.852C440.276 251.852 440.528 251.796 440.761 251.684C441.004 251.563 441.223 251.423 441.419 251.264L442.077 252.328C441.76 252.608 441.405 252.818 441.013 252.958C440.621 253.098 440.229 253.168 439.837 253.168ZM445.719 253.168C444.926 253.168 444.361 252.939 444.025 252.482C443.699 252.015 443.535 251.413 443.535 250.676V247.4H442.555V246.196L443.619 246.126L443.815 244.25H445.159V246.126H446.909V247.4H445.159V250.676C445.159 251.479 445.481 251.88 446.125 251.88C446.247 251.88 446.373 251.866 446.503 251.838C446.634 251.801 446.746 251.763 446.839 251.726L447.119 252.916C446.933 252.981 446.718 253.037 446.475 253.084C446.242 253.14 445.99 253.168 445.719 253.168ZM450.951 253.168C450.382 253.168 449.85 253.028 449.355 252.748C448.861 252.459 448.459 252.048 448.151 251.516C447.843 250.975 447.689 250.326 447.689 249.57C447.689 248.805 447.843 248.156 448.151 247.624C448.459 247.083 448.861 246.672 449.355 246.392C449.85 246.103 450.382 245.958 450.951 245.958C451.53 245.958 452.067 246.103 452.561 246.392C453.056 246.672 453.457 247.083 453.765 247.624C454.073 248.156 454.227 248.805 454.227 249.57C454.227 250.326 454.073 250.975 453.765 251.516C453.457 252.048 453.056 252.459 452.561 252.748C452.067 253.028 451.53 253.168 450.951 253.168ZM450.951 251.852C451.455 251.852 451.852 251.642 452.141 251.222C452.431 250.802 452.575 250.251 452.575 249.57C452.575 248.879 452.431 248.324 452.141 247.904C451.852 247.484 451.455 247.274 450.951 247.274C450.447 247.274 450.051 247.484 449.761 247.904C449.481 248.324 449.341 248.879 449.341 249.57C449.341 250.251 449.481 250.802 449.761 251.222C450.051 251.642 450.447 251.852 450.951 251.852ZM455.821 253V246.126H457.151L457.263 247.344H457.319C457.561 246.896 457.855 246.555 458.201 246.322C458.546 246.079 458.901 245.958 459.265 245.958C459.591 245.958 459.853 246.005 460.049 246.098L459.769 247.498C459.647 247.461 459.535 247.433 459.433 247.414C459.33 247.395 459.204 247.386 459.055 247.386C458.784 247.386 458.499 247.493 458.201 247.708C457.902 247.913 457.645 248.277 457.431 248.8V253H455.821ZM466.716 253.168C466.091 253.168 465.526 253.028 465.022 252.748C464.528 252.459 464.131 252.048 463.832 251.516C463.543 250.975 463.398 250.326 463.398 249.57C463.398 248.805 463.557 248.156 463.874 247.624C464.192 247.083 464.612 246.672 465.134 246.392C465.666 246.103 466.236 245.958 466.842 245.958C467.281 245.958 467.664 246.033 467.99 246.182C468.317 246.331 468.606 246.513 468.858 246.728L468.074 247.778C467.897 247.619 467.715 247.498 467.528 247.414C467.342 247.321 467.141 247.274 466.926 247.274C466.376 247.274 465.923 247.484 465.568 247.904C465.223 248.324 465.05 248.879 465.05 249.57C465.05 250.251 465.218 250.802 465.554 251.222C465.9 251.642 466.343 251.852 466.884 251.852C467.155 251.852 467.407 251.796 467.64 251.684C467.883 251.563 468.102 251.423 468.298 251.264L468.956 252.328C468.639 252.608 468.284 252.818 467.892 252.958C467.5 253.098 467.108 253.168 466.716 253.168ZM472.785 253.168C472.216 253.168 471.684 253.028 471.189 252.748C470.695 252.459 470.293 252.048 469.985 251.516C469.677 250.975 469.523 250.326 469.523 249.57C469.523 248.805 469.677 248.156 469.985 247.624C470.293 247.083 470.695 246.672 471.189 246.392C471.684 246.103 472.216 245.958 472.785 245.958C473.364 245.958 473.901 246.103 474.395 246.392C474.89 246.672 475.291 247.083 475.599 247.624C475.907 248.156 476.061 248.805 476.061 249.57C476.061 250.326 475.907 250.975 475.599 251.516C475.291 252.048 474.89 252.459 474.395 252.748C473.901 253.028 473.364 253.168 472.785 253.168ZM472.785 251.852C473.289 251.852 473.686 251.642 473.975 251.222C474.265 250.802 474.409 250.251 474.409 249.57C474.409 248.879 474.265 248.324 473.975 247.904C473.686 247.484 473.289 247.274 472.785 247.274C472.281 247.274 471.885 247.484 471.595 247.904C471.315 248.324 471.175 248.879 471.175 249.57C471.175 250.251 471.315 250.802 471.595 251.222C471.885 251.642 472.281 251.852 472.785 251.852ZM477.655 253V246.126H478.985L479.097 247.05H479.153C479.461 246.751 479.797 246.495 480.161 246.28C480.525 246.065 480.94 245.958 481.407 245.958C482.144 245.958 482.681 246.196 483.017 246.672C483.353 247.148 483.521 247.82 483.521 248.688V253H481.911V248.898C481.911 248.329 481.827 247.927 481.659 247.694C481.491 247.461 481.215 247.344 480.833 247.344C480.534 247.344 480.268 247.419 480.035 247.568C479.811 247.708 479.554 247.918 479.265 248.198V253H477.655ZM488.359 253.168C487.733 253.168 487.169 253.028 486.665 252.748C486.17 252.459 485.773 252.048 485.475 251.516C485.185 250.975 485.041 250.326 485.041 249.57C485.041 248.805 485.199 248.156 485.517 247.624C485.834 247.083 486.254 246.672 486.777 246.392C487.309 246.103 487.878 245.958 488.485 245.958C488.923 245.958 489.306 246.033 489.633 246.182C489.959 246.331 490.249 246.513 490.501 246.728L489.717 247.778C489.539 247.619 489.357 247.498 489.171 247.414C488.984 247.321 488.783 247.274 488.569 247.274C488.018 247.274 487.565 247.484 487.211 247.904C486.865 248.324 486.693 248.879 486.693 249.57C486.693 250.251 486.861 250.802 487.197 251.222C487.542 251.642 487.985 251.852 488.527 251.852C488.797 251.852 489.049 251.796 489.283 251.684C489.525 251.563 489.745 251.423 489.941 251.264L490.599 252.328C490.281 252.608 489.927 252.818 489.535 252.958C489.143 253.098 488.751 253.168 488.359 253.168ZM493.485 253.168C492.888 253.168 492.398 252.981 492.015 252.608C491.642 252.235 491.455 251.749 491.455 251.152C491.455 250.415 491.777 249.845 492.421 249.444C493.065 249.033 494.092 248.753 495.501 248.604C495.492 248.24 495.394 247.927 495.207 247.666C495.03 247.395 494.708 247.26 494.241 247.26C493.905 247.26 493.574 247.325 493.247 247.456C492.93 247.587 492.617 247.745 492.309 247.932L491.721 246.854C492.104 246.611 492.533 246.401 493.009 246.224C493.494 246.047 494.008 245.958 494.549 245.958C495.408 245.958 496.047 246.215 496.467 246.728C496.896 247.232 497.111 247.965 497.111 248.926V253H495.781L495.669 252.244H495.613C495.305 252.505 494.974 252.725 494.619 252.902C494.274 253.079 493.896 253.168 493.485 253.168ZM494.003 251.908C494.283 251.908 494.535 251.843 494.759 251.712C494.992 251.572 495.24 251.385 495.501 251.152V249.612C494.568 249.733 493.919 249.915 493.555 250.158C493.191 250.391 493.009 250.681 493.009 251.026C493.009 251.334 493.102 251.558 493.289 251.698C493.476 251.838 493.714 251.908 494.003 251.908ZM501.241 253.168C500.448 253.168 499.883 252.939 499.547 252.482C499.22 252.015 499.057 251.413 499.057 250.676V247.4H498.077V246.196L499.141 246.126L499.337 244.25H500.681V246.126H502.431V247.4H500.681V250.676C500.681 251.479 501.003 251.88 501.647 251.88C501.768 251.88 501.894 251.866 502.025 251.838C502.156 251.801 502.268 251.763 502.361 251.726L502.641 252.916C502.454 252.981 502.24 253.037 501.997 253.084C501.764 253.14 501.512 253.168 501.241 253.168ZM506.599 253.168C505.964 253.168 505.39 253.028 504.877 252.748C504.363 252.459 503.957 252.048 503.659 251.516C503.36 250.975 503.211 250.326 503.211 249.57C503.211 248.823 503.36 248.179 503.659 247.638C503.967 247.097 504.363 246.681 504.849 246.392C505.334 246.103 505.843 245.958 506.375 245.958C507 245.958 507.523 246.098 507.943 246.378C508.363 246.649 508.68 247.031 508.895 247.526C509.109 248.011 509.217 248.576 509.217 249.22C509.217 249.556 509.193 249.817 509.147 250.004H504.779C504.853 250.611 505.073 251.082 505.437 251.418C505.801 251.754 506.258 251.922 506.809 251.922C507.107 251.922 507.383 251.88 507.635 251.796C507.896 251.703 508.153 251.577 508.405 251.418L508.951 252.426C508.624 252.641 508.26 252.818 507.859 252.958C507.457 253.098 507.037 253.168 506.599 253.168ZM504.765 248.912H507.817C507.817 248.38 507.7 247.965 507.467 247.666C507.233 247.358 506.883 247.204 506.417 247.204C506.015 247.204 505.656 247.353 505.339 247.652C505.031 247.941 504.839 248.361 504.765 248.912ZM510.754 253V246.126H512.084L512.196 247.05H512.252C512.56 246.751 512.896 246.495 513.26 246.28C513.624 246.065 514.04 245.958 514.506 245.958C515.244 245.958 515.78 246.196 516.116 246.672C516.452 247.148 516.62 247.82 516.62 248.688V253H515.01V248.898C515.01 248.329 514.926 247.927 514.758 247.694C514.59 247.461 514.315 247.344 513.932 247.344C513.634 247.344 513.368 247.419 513.134 247.568C512.91 247.708 512.654 247.918 512.364 248.198V253H510.754ZM520.254 253.168C519.657 253.168 519.167 252.981 518.784 252.608C518.411 252.235 518.224 251.749 518.224 251.152C518.224 250.415 518.546 249.845 519.19 249.444C519.834 249.033 520.861 248.753 522.27 248.604C522.261 248.24 522.163 247.927 521.976 247.666C521.799 247.395 521.477 247.26 521.01 247.26C520.674 247.26 520.343 247.325 520.016 247.456C519.699 247.587 519.386 247.745 519.078 247.932L518.49 246.854C518.873 246.611 519.302 246.401 519.778 246.224C520.264 246.047 520.777 245.958 521.318 245.958C522.177 245.958 522.816 246.215 523.236 246.728C523.666 247.232 523.88 247.965 523.88 248.926V253H522.55L522.438 252.244H522.382C522.074 252.505 521.743 252.725 521.388 252.902C521.043 253.079 520.665 253.168 520.254 253.168ZM520.772 251.908C521.052 251.908 521.304 251.843 521.528 251.712C521.762 251.572 522.009 251.385 522.27 251.152V249.612C521.337 249.733 520.688 249.915 520.324 250.158C519.96 250.391 519.778 250.681 519.778 251.026C519.778 251.334 519.872 251.558 520.058 251.698C520.245 251.838 520.483 251.908 520.772 251.908ZM528.01 253.168C527.217 253.168 526.652 252.939 526.316 252.482C525.99 252.015 525.826 251.413 525.826 250.676V247.4H524.846V246.196L525.91 246.126L526.106 244.25H527.45V246.126H529.2V247.4H527.45V250.676C527.45 251.479 527.772 251.88 528.416 251.88C528.538 251.88 528.664 251.866 528.794 251.838C528.925 251.801 529.037 251.763 529.13 251.726L529.41 252.916C529.224 252.981 529.009 253.037 528.766 253.084C528.533 253.14 528.281 253.168 528.01 253.168ZM530.647 253V246.126H532.257V253H530.647ZM531.459 244.922C531.17 244.922 530.936 244.838 530.759 244.67C530.582 244.502 530.493 244.278 530.493 243.998C530.493 243.727 530.582 243.508 530.759 243.34C530.936 243.172 531.17 243.088 531.459 243.088C531.748 243.088 531.982 243.172 532.159 243.34C532.336 243.508 532.425 243.727 532.425 243.998C532.425 244.278 532.336 244.502 532.159 244.67C531.982 244.838 531.748 244.922 531.459 244.922ZM537.125 253.168C536.556 253.168 536.024 253.028 535.529 252.748C535.034 252.459 534.633 252.048 534.325 251.516C534.017 250.975 533.863 250.326 533.863 249.57C533.863 248.805 534.017 248.156 534.325 247.624C534.633 247.083 535.034 246.672 535.529 246.392C536.024 246.103 536.556 245.958 537.125 245.958C537.704 245.958 538.24 246.103 538.735 246.392C539.23 246.672 539.631 247.083 539.939 247.624C540.247 248.156 540.401 248.805 540.401 249.57C540.401 250.326 540.247 250.975 539.939 251.516C539.631 252.048 539.23 252.459 538.735 252.748C538.24 253.028 537.704 253.168 537.125 253.168ZM537.125 251.852C537.629 251.852 538.026 251.642 538.315 251.222C538.604 250.802 538.749 250.251 538.749 249.57C538.749 248.879 538.604 248.324 538.315 247.904C538.026 247.484 537.629 247.274 537.125 247.274C536.621 247.274 536.224 247.484 535.935 247.904C535.655 248.324 535.515 248.879 535.515 249.57C535.515 250.251 535.655 250.802 535.935 251.222C536.224 251.642 536.621 251.852 537.125 251.852ZM541.995 253V246.126H543.325L543.437 247.05H543.493C543.801 246.751 544.137 246.495 544.501 246.28C544.865 246.065 545.28 245.958 545.747 245.958C546.484 245.958 547.021 246.196 547.357 246.672C547.693 247.148 547.861 247.82 547.861 248.688V253H546.251V248.898C546.251 248.329 546.167 247.927 545.999 247.694C545.831 247.461 545.555 247.344 545.173 247.344C544.874 247.344 544.608 247.419 544.375 247.568C544.151 247.708 543.894 247.918 543.605 248.198V253H541.995Z" fill="#232A3D"/>
<defs>
<linearGradient id="paint0_linear_92_81" x1="127" y1="176" x2="126.657" y2="216.457" gradientUnits="userSpaceOnUse">
<stop stop-color="#9B51E0"/>
<stop offset="1" stop-color="white"/>
</linearGradient>
<linearGradient id="paint1_linear_92_81" x1="178" y1="176" x2="177.657" y2="216.457" gradientUnits="userSpaceOnUse">
<stop stop-color="#9B51E0"/>
<stop offset="1" stop-color="white"/>
</linearGradient>
<linearGradient id="paint2_linear_92_81" x1="241" y1="176" x2="240.657" y2="215.086" gradientUnits="userSpaceOnUse">
<stop stop-color="#1F69FF"/>
<stop offset="1" stop-color="white"/>
</linearGradient>
<linearGradient id="paint3_linear_92_81" x1="393" y1="40" x2="392.571" y2="90.5714" gradientUnits="userSpaceOnUse">
<stop stop-color="#9B51E0"/>
<stop offset="1" stop-color="white"/>
</linearGradient>
<linearGradient id="paint4_linear_92_81" x1="393" y1="90" x2="392.571" y2="138.857" gradientUnits="userSpaceOnUse">
<stop stop-color="#1F69FF"/>
<stop offset="1" stop-color="white"/>
</linearGradient>
</defs>
</svg>
